# xmcd CD database file
#
# Track frame offsets:
#	150
#	31020
#	48638
#	71170
#	87403
#	108558
#	142695
#	167350
#	185000
#	204668
#	225868
#	244113
#	266040
#	296128
#
# Disc length: 4178 seconds
#
# Revision: 0
# Processed by: cddbd v1.5.2PL0 Copyright (c) Steve Scherf et al.
# Submitted via: Kat CD Ripper 
#
DISCID=c510500e
DTITLE=Various Artist - KKSF Volume 3
DYEAR=1994
DGENRE=Jazz
TTITLE0=Bob James and David Sanborn - Maputo
TTITLE1=Bonnie Raitt - Nick Of Time
TTITLE2=Dave Grusin and Lee Ritenour - Early A.M. Attitude
TTITLE3=Danny Wright - October
TTITLE4=Al Jarreau - One Way
TTITLE5=Greenidge and Utley - Soltar
TTITLE6=Bernward Koch - Ever Returning
TTITLE7=Sting - Fragile
TTITLE8=David A. Stewart - Lily Was Here
TTITLE9=Richard Burmer - Across The View
TTITLE10=Lauren Wood - Fallen
TTITLE11=Hiroshima - One Wish
TTITLE12=Bose - Que No Hay
TTITLE13=Yanni - Once Upon A Time
EXTD=YEAR: 1994
EXTT0=
EXTT1=
EXTT2=
EXTT3=
EXTT4=
EXTT5=
EXTT6=
EXTT7=
EXTT8=
EXTT9=
EXTT10=
EXTT11=
EXTT12=
EXTT13=
PLAYORDER=
